# xmcd CD database file
#
# Track frame offsets:
#	150
#	20483
#	41640
#	66550
#	93350
#	108479
#	127008
#	146960
#	168562
#	187504
#	201921
#	217541
#	237093
#
# Disc length: 3437 seconds
#
# Revision: 0
# Processed by: cddbd v1.5.1PL0 Copyright (c) Steve Scherf et al.
# Submitted via: CDex 1.51
#
DISCID=b80d6b0d
DTITLE=Forrest McDonald - Spirit of the Blues
DYEAR=1999
DGENRE=Blues
TTITLE0=That's My Baby
TTITLE1=Anchor to a Drowning Man
TTITLE2=Texas
TTITLE3=People I'm Hurting
TTITLE4=Love Me In the Morning
TTITLE5=Cry No More
TTITLE6=If You Don't Really Love Me
TTITLE7=Take Me to the Country
TTITLE8=Ride My Buggy
TTITLE9=Lazy Old Woman
TTITLE10=Hard to Lose
TTITLE11=Whiskey
TTITLE12=Rock This House
EXTD=YEAR: 1999
EXTT0=
EXTT1=
EXTT2=
EXTT3=
EXTT4=
EXTT5=
EXTT6=
EXTT7=
EXTT8=
EXTT9=
EXTT10=
EXTT11=
EXTT12=
PLAYORDER=
